# xmcd
#
# Track frame offsets: 
#        187
#        10747
#        27137
#        40730
#        47807
#        62257
#        81162
#        90007
#        103862
#        117557
#        126560
#        142867
#        152997
#        162247
#        177022
#        188722
#
# Disc length: 2948 seconds
#
# Revision: 1
# Processed by: cddbd v1.5.2PL0 Copyright (c) Steve Scherf et al.
# Submitted via: ExactAudioCopy v0.99pb4
#
DISCID=c30b8210
DTITLE=Glenn Miller and the Army Air Force Band - Rare Broadcast - Per
DTITLE=formances from 1943 - 1944
DYEAR=1990
DGENRE=Jazz
TTITLE0=Sun Valley Jump - Jerry Gray
TTITLE1=I Got Rhythm - Ira and Geroge Gershwin
TTITLE2=Rhapsody in Blue - G. Gershwin
TTITLE3=My Blue Heaven - G. Whitting and W. Donaldson
TTITLE4=Long Ago And Far Away - Ira Gershwin Jerome Kern
TTITLE5=Oh What A Beautiful Morning - R.Rodgers O. Hammerstein
TTITLE6=A Tisket A Tasket - Ella Fitzgerald
TTITLE7=What Do You Do In The Infantry - F. Loesser
TTITLE8=Soitude - Ellington+De Lange+Mills
TTITLE9=I'll Be Around - A. Wilder
TTITLE10=Here We Go Again - Jerry Gray
TTITLE11=Jeep Jockey Jump - Jerry Gray
TTITLE12=Over There - George M. Cohan
TTITLE13=Peggy, The Pin Up Girl - Evans
TTITLE14=There'll Be A Hot Time In The Town Of Berlin - Bushkin and de V
TTITLE14=ries
TTITLE15=Medley-In The Gloaming-The First Time-Stompin At The Savoy-De
TTITLE15=ep Purple
EXTD=
EXTT0=
EXTT1=
EXTT2=
EXTT3=
EXTT4=
EXTT5=
EXTT6=
EXTT7=
EXTT8=
EXTT9=
EXTT10=
EXTT11=
EXTT12=
EXTT13=
EXTT14=
EXTT15=
PLAYORDER=
